<svg xmlns="http://www.w3.org/2000/svg" xmlns:xlink="http://www.w3.org/1999/xlink" xml:space="preserve" style="shape-rendering:geometricPrecision;text-rendering:geometricPrecision;image-rendering:optimizeQuality;" viewBox="0 0 6.82666 8.533325000000001" version="1.1" x="0px" y="0px" fill-rule="evenodd" clip-rule="evenodd"><defs><style type="text/css">
   
    .fil1 {fill:none}
    .fil0 {fill:#FFC107}
   
  </style></defs><g><g><path class="fil0"  d="M4.04375 3.82257l0.000110236 0 -0.000110236 0zm-1.19073 -0.0434803l0.560299 0.279161 0.560272 -0.279161 0 -0.731543 -0.560272 -0.279161 -0.560299 0.279161 0 0.731543zm0.560299 0.427768c-0.0107165,0 -0.0214606,-0.00255512 -0.0313268,-0.0074252l-0.630429 -0.31413c-0.0237598,-0.011815 -0.0388661,-0.0361732 -0.0388661,-0.0627244l7.87402e-006 -0.818508c0,-0.0265551 0.0150906,-0.0509094 0.0388465,-0.0627205l0.630441 -0.31413c0.0197323,-0.00986614 0.042878,-0.0098622 0.0626102,0l0.630445 0.314118c0.0238661,0.011811 0.0388504,0.036185 0.0388504,0.0627362l7.87402e-006 0.818496c0,0.0265551 -0.0149921,0.0509213 -0.0388622,0.0627362l-0.630425 0.314126c-0.00986614,0.0048622 -0.0206024,0.00742913 -0.0312992,0.0074252z"/><path class="fil0" d="M3.41332 3.38848c-0.0107165,0 -0.0214606,-0.00242913 -0.0313268,-0.00729921l-0.630429 -0.314248c-0.0347205,-0.0173071 -0.0487362,-0.059437 -0.0314331,-0.0941535 0.017185,-0.0345945 0.059315,-0.0487205 0.0940276,-0.0314213l0.599161 0.29865 0.599134 -0.298661c0.0346969,-0.0172913 0.0768386,-0.00315748 0.0941339,0.0314331 0.0173228,0.0347126 0.00316929,0.0768583 -0.0315433,0.0941535l-0.630425 0.31424c-0.00986614,0.00486614 -0.0206024,0.00731102 -0.0312992,0.00730709z"/><path class="fil0" d="M5.38491 3.91137c-0.038752,0 -0.0701732,-0.0314173 -0.0701732,-0.0701457l1.5748e-005 -0.842256c0,-0.0387402 0.0314055,-0.0701575 0.0701417,-0.0701575 0.0387362,0 0.0701575,0.0314252 0.0701575,0.0701575l1.5748e-005 0.842244c0,0.0387362 -0.0314449,0.0701693 -0.0701575,0.0701575z"/><path class="fil0" d="M2.07227 2.68483l0.000137795 0 -0.000137795 0zm-1.19084 -0.0433543l0.560409 0.279283 0.560276 -0.279283 0 -0.731421 -0.560276 -0.279287 -0.560409 0.279287 0 0.731421zm0.560409 0.427756c-0.0107126,0 -0.0214528,-0.0024252 -0.0313189,-0.00729528l-0.630433 -0.314252c-0.0238701,-0.011937 -0.0388622,-0.0361693 -0.0388622,-0.0628465l0 -0.818264c0,-0.0265512 0.0149803,-0.0509094 0.0388543,-0.0627205l0.630469 -0.314248c0.0195906,-0.00987795 0.0428504,-0.00987008 0.0625787,0l0.630441 0.314244c0.0237638,0.011811 0.0388543,0.0361772 0.0388543,0.0627244l3.93701e-006 0.818256c0,0.0266811 -0.0151063,0.0509213 -0.0388583,0.0628583l-0.630429 0.314236c-0.00986614,0.00487795 -0.0205945,0.00731496 -0.0312992,0.00730709z"/><path class="fil0" d="M1.44184 2.25085c-0.0107126,0 -0.0214528,-0.00242913 -0.0313189,-0.00730315l-0.630433 -0.314134c-0.0347205,-0.0172913 -0.0488504,-0.0594252 -0.0315551,-0.0941417 0.0173031,-0.0345906 0.0594409,-0.0487205 0.0940276,-0.0315472l0.59928 0.298535 0.599138 -0.298539c0.0345827,-0.0171693 0.0767205,-0.00303937 0.0940157,0.0315512 0.0173031,0.0347165 0.00316929,0.0768583 -0.0315433,0.0941535l-0.630421 0.314122c-0.00975591,0.00486614 -0.0204843,0.00731102 -0.031189,0.00730315z"/><path class="fil0" d="M1.44184 3.06923c-0.0388583,0 -0.0701732,-0.0314134 -0.0701732,-0.0701496l1.5748e-005 -0.818386c0,-0.0387402 0.0312874,-0.0701496 0.0701417,-0.0701496 0.0387402,-7.87402e-006 0.0701575,0.0314213 0.0701575,0.0701575l1.5748e-005 0.81837c0,0.0387323 -0.031437,0.0701654 -0.0701575,0.0701575z"/><path class="fil0" d="M2.07227 4.97372l0.000137795 0 -0.000137795 0zm-1.19084 -0.0433543l0.560409 0.279165 0.560276 -0.279165 0 -0.731539 -0.560276 -0.279287 -0.560409 0.279287 0 0.731539zm0.560409 0.427768c-0.0107126,0 -0.0214528,-0.00243701 -0.0313189,-0.00731102l-0.630433 -0.314248c-0.0238701,-0.011937 -0.0388622,-0.0362953 -0.0388622,-0.0628465l0 -0.81826c0,-0.0266811 0.0149803,-0.0509094 0.0388543,-0.0628504l0.630469 -0.314248c0.0195906,-0.00974016 0.0428504,-0.00974016 0.0625787,0l0.630441 0.314244c0.0237638,0.011937 0.0388543,0.0361811 0.0388543,0.0628583l3.93701e-006 0.818248c0,0.0265551 -0.0151063,0.0509213 -0.0388583,0.0628583l-0.630429 0.314236c-0.00986614,0.00487795 -0.0205945,0.0073189 -0.0312992,0.0073189z"/><path class="fil0" d="M1.44184 4.53987c-0.0107126,0 -0.0214528,-0.00243307 -0.0313189,-0.00742913l-0.630433 -0.314256c-0.0347205,-0.0171693 -0.0488504,-0.0593071 -0.0315551,-0.0940197 0.0173031,-0.0347165 0.0594409,-0.0487205 0.0940276,-0.0315472l0.59928 0.298661 0.599138 -0.298665c0.0345827,-0.0172913 0.0767205,-0.00316142 0.0940157,0.0315512 0.0173031,0.0347008 0.00316929,0.0768583 -0.0314252,0.0940276l-0.630429 0.314248c-0.00986614,0.00498819 -0.0205945,0.00743307 -0.0312992,0.00742913z"/><path class="fil0" d="M1.44184 5.35813c-0.0388583,0 -0.0701732,-0.0314252 -0.0701732,-0.0701575l1.5748e-005 -0.818264c0,-0.0387402 0.0312874,-0.0701535 0.0701417,-0.0701535 0.0387402,-3.93701e-006 0.0701575,0.0314252 0.0701575,0.0701575l1.5748e-005 0.81826c0,0.0387244 -0.031437,0.0701575 -0.0701575,0.0701575z"/><path class="fil0" d="M6.01534 2.68483l0.000137795 0 -0.000137795 0zm-1.19073 -0.0433543l0.560303 0.279283 0.560272 -0.279283 0 -0.731421 -0.560272 -0.279287 -0.560303 0.279287 0 0.731421zm0.560303 0.427756c-0.0107165,0 -0.0214528,-0.0024252 -0.0313228,-0.00729528l-0.630433 -0.314252c-0.0238701,-0.011937 -0.0388622,-0.0361693 -0.0388622,-0.0628465l0 -0.818264c0,-0.0265512 0.0149803,-0.0509094 0.0388543,-0.0627205l0.630465 -0.314248c0.0197323,-0.00987795 0.0428504,-0.00987008 0.0625827,0l0.630445 0.314244c0.0237559,0.011811 0.0388504,0.0361772 0.0388504,0.0627244l7.87402e-006 0.818256c0,0.0266811 -0.0151102,0.0509213 -0.0388583,0.0628583l-0.630433 0.314236c-0.00986614,0.00487795 -0.0205945,0.00731496 -0.0312953,0.00730709z"/><path class="fil0" d="M5.38491 2.25085c-0.0107165,0 -0.0214528,-0.00242913 -0.0313228,-0.00730315l-0.630433 -0.314134c-0.0347205,-0.0172913 -0.0488504,-0.0594252 -0.0315512,-0.0941417 0.0172992,-0.0345906 0.059437,-0.0487205 0.0941496,-0.0315472l0.599157 0.298535 0.59913 -0.298539c0.0347244,-0.0171693 0.0768504,-0.00303937 0.0941457,0.0315512 0.0171772,0.0347165 0.00316535,0.0768583 -0.0315472,0.0941535l-0.630433 0.314122c-0.00986614,0.00486614 -0.0205945,0.00731102 -0.0312953,0.00730315z"/><path class="fil0" d="M5.38491 3.06923c-0.038752,0 -0.0701732,-0.0314134 -0.0701732,-0.0701496l1.5748e-005 -0.818386c0,-0.0387402 0.0314055,-0.0701496 0.0701417,-0.0701496 0.0387362,-7.87402e-006 0.0701575,0.0314213 0.0701575,0.0701575l1.5748e-005 0.81837c0,0.0387323 -0.0314449,0.0701654 -0.0701575,0.0701575z"/><path class="fil0" d="M6.01534 4.97372l0.000137795 0 -0.000137795 0zm-1.19073 -0.0433543l0.560303 0.279165 0.560272 -0.279165 0 -0.731539 -0.560272 -0.279287 -0.560303 0.279287 0 0.731539zm0.560303 0.427768c-0.0107165,0 -0.0214528,-0.00243701 -0.0313228,-0.00731102l-0.630433 -0.314248c-0.0238701,-0.011937 -0.0388622,-0.0362953 -0.0388622,-0.0628465l0 -0.81826c0,-0.0266811 0.0149803,-0.0509094 0.0388543,-0.0628504l0.630465 -0.314248c0.0197323,-0.00974016 0.0428504,-0.00974016 0.0625827,0l0.630445 0.314244c0.0237559,0.011937 0.0388504,0.0361811 0.0388504,0.0628583l7.87402e-006 0.818248c0,0.0265551 -0.0151102,0.0509213 -0.0388583,0.0628583l-0.630433 0.314236c-0.00986614,0.00487795 -0.0205945,0.0073189 -0.0312953,0.0073189z"/><path class="fil0" d="M5.38491 4.53987c-0.0107165,0 -0.0214528,-0.00243307 -0.0313228,-0.00742913l-0.630433 -0.314256c-0.0347205,-0.0171693 -0.0488504,-0.0593071 -0.0315512,-0.0940197 0.0172992,-0.0347165 0.059437,-0.0487205 0.0941496,-0.0315472l0.599157 0.298661 0.59913 -0.298665c0.0347244,-0.0172913 0.0768504,-0.00316142 0.0941457,0.0315512 0.0171772,0.0347008 0.00316535,0.0768583 -0.0315472,0.0940276l-0.630433 0.314248c-0.00986614,0.00498819 -0.0205945,0.00743307 -0.0312953,0.00742913z"/><path class="fil0" d="M5.38491 5.35813c-0.038752,0 -0.0701732,-0.0314252 -0.0701732,-0.0701575l1.5748e-005 -0.818264c0,-0.0387402 0.0314055,-0.0701535 0.0701417,-0.0701535 0.0387362,-3.93701e-006 0.0701575,0.0314252 0.0701575,0.0701575l1.5748e-005 0.81826c0,0.0387244 -0.0314449,0.0701575 -0.0701575,0.0701575z"/><path class="fil0" d="M4.04375 1.55232l0.000110236 0 -0.000110236 0zm-1.19073 -0.0433543l0.560299 0.279161 0.560272 -0.279161 0 -0.731543 -0.560272 -0.279287 -0.560299 0.279287 0 0.731543zm0.560299 0.427764c-0.0107165,0 -0.0214606,-0.00243307 -0.0313268,-0.00730315l-0.630429 -0.314252c-0.0237598,-0.011937 -0.0388661,-0.0362913 -0.0388661,-0.0628465l7.87402e-006 -0.81826c0,-0.0266811 0.0150906,-0.0509094 0.0388465,-0.0628465l0.630441 -0.314252c0.0197323,-0.00974409 0.0429921,-0.00974409 0.0626102,3.93701e-006l0.630445 0.31424c0.0238661,0.0119331 0.0388504,0.0361811 0.0388504,0.0628543l7.87402e-006 0.818252c0,0.0265551 -0.0149921,0.0509213 -0.0388622,0.0628583l-0.630425 0.314236c-0.00986614,0.00487795 -0.0206024,0.00731496 -0.0312992,0.00731496z"/><path class="fil0" d="M3.41332 1.11835c-0.0107165,0 -0.0214606,-0.00242913 -0.0313268,-0.00742126l-0.630429 -0.314126c-0.0345827,-0.017185 -0.0487362,-0.059315 -0.0314331,-0.0940315 0.017185,-0.0347165 0.059315,-0.0487205 0.0940276,-0.0315433l0.599161 0.298531 0.599134 -0.298539c0.0346969,-0.0172953 0.0768386,-0.00316142 0.0941339,0.0315512 0.0173228,0.0347126 0.00316929,0.0768583 -0.0315433,0.0940315l-0.630425 0.314122c-0.00986614,0.00498425 -0.0206024,0.00743307 -0.0312992,0.0074252z"/><path class="fil0" d="M4.04375 6.09258l0.000110236 0 -0.000110236 0zm-1.19073 -0.0433543l0.560299 0.279287 0.560272 -0.279287 0 -0.731543 -0.560272 -0.279161 -0.560299 0.279161 0 0.731543zm0.560299 0.427768c-0.0107165,0 -0.0214606,-0.00243307 -0.0313268,-0.00730315l-0.630429 -0.31426c-0.0237598,-0.0119291 -0.0388661,-0.0361654 -0.0388661,-0.0628386l7.87402e-006 -0.818264c0,-0.0265591 0.0150906,-0.0509094 0.0388465,-0.0627244l0.630441 -0.314248c0.0197323,-0.00986614 0.0429921,-0.00986614 0.0626102,3.93701e-006l0.630445 0.314236c0.0238661,0.011811 0.0388504,0.036185 0.0388504,0.0627362l7.87402e-006 0.818248c0,0.0266772 -0.0149921,0.0509252 -0.0388622,0.0628622l-0.630425 0.314248c-0.00986614,0.00486614 -0.0206024,0.00730709 -0.0312992,0.00730315z"/><path class="fil0" d="M3.41332 5.65872c-0.0107165,0 -0.0214606,-0.0024252 -0.0313268,-0.00729921l-0.630429 -0.314248c-0.0347205,-0.0173031 -0.0487362,-0.059437 -0.0314331,-0.0941496 0.017185,-0.0347244 0.059315,-0.0487205 0.0940276,-0.0314252l0.599161 0.298657 0.599134 -0.298665c0.0346969,-0.0172953 0.0768386,-0.00327953 0.0941339,0.0314331 0.0173228,0.0347087 0.00316929,0.0768543 -0.0315433,0.0941496l-0.630425 0.314244c-0.00986614,0.00487795 -0.0206024,0.00731496 -0.0312992,0.00730315z"/><path class="fil0" d="M3.41332 6.47699c-0.038752,0 -0.0701811,-0.0314252 -0.0701811,-0.0701535l2.3622e-005 -0.818272c0,-0.0387244 0.0314016,-0.0701457 0.0701339,-0.0701457 0.038748,-1.1811e-005 0.0701575,0.0314252 0.0701575,0.0701575l2.3622e-005 0.818256c0,0.0387244 -0.0314449,0.0701614 -0.0701575,0.0701575z"/><path class="fil0" d="M2.82915 5.32159c-0.011811,0 -0.0238819,-0.00304331 -0.0349685,-0.00949606l-0.756988 -0.437035c-0.0335984,-0.0193583 -0.0450709,-0.0622283 -0.0257087,-0.0958465 0.019378,-0.0335039 0.0622441,-0.045063 0.0958622,-0.0256969l0.756992 0.437134c0.0335157,0.0193701 0.045063,0.062248 0.0257008,0.0957441 -0.0130118,0.0225197 -0.0366654,0.0352008 -0.0608898,0.0351969z"/><path class="fil0" d="M1.44184 3.91137c-0.0388583,0 -0.0701732,-0.0314173 -0.0701732,-0.0701457l1.5748e-005 -0.842256c0,-0.0387402 0.0312874,-0.0701575 0.0701417,-0.0701575 0.0387402,0 0.0701575,0.0314252 0.0701575,0.0701575l1.5748e-005 0.842244c0,0.0387362 -0.031437,0.0701693 -0.0701575,0.0701575z"/><path class="fil0" d="M2.01941 1.91043c-0.0387244,0 -0.0701575,-0.0314213 -0.0701575,-0.0701575 0,-0.0271732 0.0153465,-0.0506693 0.037878,-0.0623622l0.760657 -0.439343c0.033626,-0.0193622 0.0764803,-0.00790945 0.0958504,0.0257087 0.0193898,0.0334843 0.00791339,0.0763661 -0.0257008,0.0958583l-0.763311 0.440909c-0.0107165,0.00609843 -0.0227913,0.00938583 -0.0352165,0.00938583z"/><path class="fil0" d="M4.80707 1.91043c-0.011811,0 -0.023874,-0.00304724 -0.0349567,-0.00937795l-0.763441 -0.440807c-0.0334843,-0.0193622 -0.0450748,-0.0623504 -0.0257087,-0.0958504 0.0194882,-0.0335039 0.0622402,-0.045063 0.0958543,-0.0256969l0.763469 0.440791c0.033626,0.0193622 0.0450512,0.0623661 0.025685,0.0958622 -0.0130236,0.0225276 -0.0365433,0.0350787 -0.0609016,0.0350787z"/><path class="fil0" d="M3.9976 5.32134c-0.0242559,0 -0.0477717,-0.0125394 -0.0608071,-0.0350709 -0.0193583,-0.0334961 -0.00791339,-0.0764921 0.0257047,-0.0958583l0.75687 -0.436906c0.0336299,-0.0193622 0.0764882,-0.00779134 0.0958583,0.0257047 0.0193819,0.0336102 0.00779134,0.0764921 -0.0257047,0.0958583l-0.756843 0.436902c-0.0111024,0.00633071 -0.0231693,0.00937795 -0.0350787,0.00937008z"/><path class="fil0" d="M3.41332 2.7601c-0.038752,0 -0.0701811,-0.0312913 -0.0701811,-0.0700236l2.3622e-005 -1.64189c0,-0.0387402 0.0314016,-0.0701496 0.0701339,-0.0701496 0.038748,-7.87402e-006 0.0701575,0.0314252 0.0701575,0.0701575l2.3622e-005 1.64187c0,0.0387402 -0.0314449,0.0700472 -0.0701575,0.0700354z"/><path class="fil0" d="M3.41332 5.03024c-0.038752,0 -0.0701811,-0.0314252 -0.0701811,-0.0701575l2.3622e-005 -1.64176c0,-0.0387244 0.0314016,-0.0701496 0.0701339,-0.0701496 0.038748,-7.87402e-006 0.0701575,0.0314252 0.0701575,0.0701535l2.3622e-005 1.64176c0,0.0387244 -0.0314449,0.0701575 -0.0701575,0.0701575z"/></g></g><rect class="fil1" width="6.82666" height="6.82666"/></svg>