<svg xmlns="http://www.w3.org/2000/svg" version="1.1" viewBox="-5.0 -10.0 110.0 135.0">
 <g>
  <path fill='#FFC107' d="m41.668 41.656h16.668v16.668h-16.668z"/>
  <path fill='#FFC107' d="m63.332 34.988h-26.664c-0.92188 0-1.668 0.74609-1.668 1.668v26.668c0 0.44141 0.17578 0.86328 0.48828 1.1758s0.73828 0.48828 1.1797 0.48828h26.664c0.44141 0 0.86719-0.17578 1.1797-0.48828s0.48828-0.73438 0.48828-1.1758v-26.668c0-0.44141-0.17578-0.86719-0.48828-1.1797s-0.73828-0.48828-1.1797-0.48828zm-1.668 23.332 0.003907 0.003907c0 0.88281-0.35156 1.7305-0.97656 2.3555s-1.4727 0.97656-2.3594 0.97656h-16.664c-1.8438 0-3.3359-1.4922-3.3359-3.332v-16.668c0-1.8398 1.4922-3.332 3.3359-3.332h16.664c0.88672 0 1.7344 0.35156 2.3594 0.97656s0.97656 1.4727 0.97656 2.3555z"/>
  <path fill='#FFC107' d="m91.668 66.656c0.007812-1.9688-0.5-3.9062-1.4648-5.625-0.28125-0.49219-0.29297-1.0938-0.03125-1.5977 2.707-5.2109 1.6719-11.582-2.5469-15.668-0.5-0.48047-0.64844-1.2227-0.375-1.8594 0.71875-1.6562 1.0859-3.4453 1.082-5.25 0.003907-4.4648-2.2344-8.6289-5.957-11.094-0.49609-0.33203-0.78125-0.90234-0.73828-1.5 0.015625-0.25 0.03125-0.5 0.03125-0.74609-0.039063-5.4414-3.8008-10.148-9.1016-11.383-0.60547-0.13672-1.0859-0.59766-1.2422-1.1992-1.3047-4.8438-5.9922-7.9688-10.965-7.3164-4.9688 0.65625-8.6875 4.8906-8.6914 9.9062 0 0.91797-0.74609 1.6641-1.668 1.6641s-1.668-0.74609-1.668-1.6641c-0.007812-5.0117-3.7266-9.2383-8.6914-9.8945-4.9688-0.65234-9.6523 2.4688-10.961 7.3047-0.16016 0.60156-0.63672 1.0625-1.2422 1.1992-5.3047 1.2344-9.0703 5.9453-9.1055 11.391 0 0.25 0.015625 0.5 0.027344 0.75391h0.003906c0.03125 0.58984-0.25 1.1523-0.74219 1.4805-5.3594 3.5586-7.4141 10.441-4.875 16.355 0.27734 0.63672 0.12891 1.3789-0.37109 1.8594-4.2188 4.0859-5.2539 10.453-2.5508 15.668 0.26562 0.5 0.25391 1.1016-0.027344 1.5977-0.96484 1.7148-1.4688 3.6484-1.4648 5.6172 0.003907 2.9531 1.125 5.793 3.1406 7.9492 0.36328 0.39453 0.51953 0.9375 0.41406 1.4648-0.14844 0.74219-0.22266 1.4961-0.21875 2.2539 0.007812 6.4375 5.2266 11.66 11.664 11.664 0.5 0.007813 0.99609-0.027343 1.4883-0.097656 0.68359-0.097656 1.3594 0.23438 1.7031 0.83594 2.6016 4.6133 7.9922 6.8906 13.117 5.543 5.125-1.3477 8.6953-5.9805 8.6914-11.281 0-0.91797 0.74609-1.6641 1.668-1.6641s1.668 0.74609 1.668 1.6641c-0.003907 5.3008 3.5664 9.9375 8.6914 11.285 5.125 1.3477 10.516-0.92969 13.117-5.5469 0.33984-0.60547 1.0156-0.93359 1.7031-0.83203 0.49219 0.070313 0.98828 0.10156 1.4883 0.097657 6.4375-0.007813 11.656-5.2266 11.664-11.668 0.003907-0.75391-0.070312-1.5117-0.21875-2.2539-0.10547-0.52344 0.050781-1.0703 0.41406-1.4609 2.0156-2.1602 3.1367-5 3.1406-7.9531zm-13.332-15h-10.004v5h5c0.88672 0 1.7344 0.35156 2.3594 0.97656s0.97656 1.4727 0.97656 2.3555v3.3359c0 0.44141-0.17578 0.86328-0.48828 1.1758s-0.73828 0.48828-1.1797 0.48828c-0.92188 0-1.668-0.74609-1.668-1.6641v-3.332l-5-0.003907v3.3359c0 2.7617-2.2383 5-5 5h-3.332v5h3.332c0.92188 0 1.668 0.74609 1.668 1.6641 0 0.92188-0.74609 1.668-1.668 1.668h-3.332c-1.8398 0-3.332-1.4922-3.332-3.332v-5h-5v10c0 0.91797-0.74609 1.6641-1.668 1.6641s-1.668-0.74609-1.668-1.6641v-10h-5v5c0 0.88281-0.35156 1.7305-0.97656 2.3555s-1.4727 0.97656-2.3555 0.97656h-3.332c-0.92188 0-1.668-0.74609-1.668-1.668 0-0.91797 0.74609-1.6641 1.668-1.6641h3.332v-5h-3.332c-2.7617 0-5-2.2383-5-5v-3.332l-5-0.003907v3.3359c0 0.44141-0.17578 0.86328-0.48828 1.1758s-0.73828 0.48828-1.1797 0.48828c-0.92188 0-1.668-0.74609-1.668-1.6641v-3.3359c0-1.8398 1.4922-3.332 3.3359-3.332h5v-5h-10c-0.92188 0-1.668-0.74609-1.668-1.668 0-0.91797 0.74609-1.6641 1.668-1.6641h10v-5h-5c-1.8438 0-3.3359-1.4922-3.3359-3.3359v-3.3203c0-0.92188 0.74609-1.668 1.668-1.668 0.44141 0 0.86719 0.17578 1.1797 0.48828s0.48828 0.73828 0.48828 1.1797v3.332h5v-3.332c0-2.7617 2.2383-5 5-5h3.332v-5h-3.332c-0.92188 0-1.668-0.74609-1.668-1.668s0.74609-1.668 1.668-1.668h3.332c0.88281 0 1.7305 0.35156 2.3555 0.97656s0.97656 1.4727 0.97656 2.3594v5h5v-10c0-0.92188 0.74609-1.668 1.668-1.668s1.668 0.74609 1.668 1.668v10h5v-5c0-1.8438 1.4922-3.3359 3.332-3.3359h3.332c0.92188 0 1.668 0.74609 1.668 1.668s-0.74609 1.668-1.668 1.668h-3.332v5h3.332c2.7617 0 5 2.2383 5 5v3.332h5v-3.332c0-0.92188 0.74609-1.668 1.668-1.668 0.44141 0 0.86719 0.17578 1.1797 0.48828s0.48828 0.73828 0.48828 1.1797v3.332c0 0.88281-0.35156 1.7305-0.97656 2.3555s-1.4727 0.97656-2.3594 0.97656h-5v5h10c0.92188 0 1.668 0.74609 1.668 1.668s-0.74609 1.668-1.668 1.668z"/>
 </g>
</svg>