<svg xmlns="http://www.w3.org/2000/svg" viewBox="0 0 48 60" x="0px" y="0px"><title>Frontend</title><g><rect x="9" y="12" width="30" height="8" rx="1" fill="#202022"/><path fill='#FFC107' d="M16,28H10a1,1,0,0,1-1-1V23a1,1,0,0,1,1-1h6a1,1,0,0,1,1,1v4A1,1,0,0,1,16,28Zm-5-2h4V24H11Z"/><path fill='#FFC107' d="M27,28H21a1,1,0,0,1-1-1V23a1,1,0,0,1,1-1h6a1,1,0,0,1,1,1v4A1,1,0,0,1,27,28Zm-5-2h4V24H22Z"/><path fill='#FFC107' d="M38,28H32a1,1,0,0,1-1-1V23a1,1,0,0,1,1-1h6a1,1,0,0,1,1,1v4A1,1,0,0,1,38,28Zm-5-2h4V24H33Z"/><path fill='#FFC107' d="M16,32H10a1,1,0,0,1,0-2h6A1,1,0,0,1,16,32Z"/><path fill='#FFC107' d="M27,32H21a1,1,0,0,1,0-2h6A1,1,0,0,1,27,32Z"/><path fill='#FFC107' d="M38,32H32a1,1,0,0,1,0-2h6A1,1,0,0,1,38,32Z"/><path fill='#FFC107' d="M45,6H43V8h2a1,1,0,0,1,1,1V34H2V9A1,1,0,0,1,3,8H5V6H3A3,3,0,0,0,0,9V39a3,3,0,0,0,3,3H17.82l-.67,4H16a1,1,0,0,0,0,2H32a1,1,0,0,0,0-2H30.85l-.67-4H45a3,3,0,0,0,3-3V9A3,3,0,0,0,45,6ZM24,37a1,1,0,0,1,0,2A1,1,0,0,1,24,37Zm-4.82,9,.67-4h8.3l.67,4Z"/><path fill='#FFC107' d="M11,5A1,1,0,0,1,9,5,1,1,0,0,1,11,5Z"/><path fill='#FFC107' d="M15,5a1,1,0,0,1-2,0A1,1,0,0,1,15,5Z"/><path fill='#FFC107' d="M19,5a1,1,0,0,1-2,0A1,1,0,0,1,19,5Z"/><path fill='#FFC107' d="M39,0H9A4,4,0,0,0,5,4V34H7V10H41V34h2V4A4,4,0,0,0,39,0Zm2,8H7V4A2,2,0,0,1,9,2H39a2,2,0,0,1,2,2Z"/><path fill='#FFC107' d="M38,6H28a1,1,0,0,1,0-2H38A1,1,0,0,1,38,6Z"/></g></svg>